# xmcd CD database file
#
# Track frame offsets:
#	150
#	18592
#	46693
#	63856
#	86050
#	106172
#	118624
#	135128
#	161235
#	193693
#
# Disc length: 2766 seconds
#
# Revision: 0
# Processed by: cddbd v1.5.2PL0 Copyright (c) Steve Scherf et al.
# Submitted via: CDex 1.51
#
DISCID=790acc0a
DTITLE=Keith Jarrett - NO END [Disk2]
DYEAR=2013
DGENRE=Jazz
TTITLE0=XI
TTITLE1=XII
TTITLE2=XIII
TTITLE3=XIV
TTITLE4=XV
TTITLE5=XVI
TTITLE6=XVII
TTITLE7=XVIII
TTITLE8=XIX
TTITLE9=XX
EXTD=YEAR: 2013
EXTT0=
EXTT1=
EXTT2=
EXTT3=
EXTT4=
EXTT5=
EXTT6=
EXTT7=
EXTT8=
EXTT9=
PLAYORDER=
